#!OML:ASF E:\emotionWalksFemale\Project 1\Capture day 1\Session 1\Female1.ASF
:FULLY-SPECIFIED
:DEGREES
1
root 9.09009 15.1335 42.0332 -179.976 -12.9108 -179.321
lowerback 5.08026 2.60472 2.10884
upperback -3.69713 3.61379 0.252418
thorax -6.58938 1.66399 -1.2971
lowerneck -1.81584 16.8072 8.69321
upperneck 9.80541 22.4473 -4.09979
head 4.67188 11.157 -1.25203
rclavicle 1.95554e-014 -1.14301e-014
rhumerus -47.6576 15.526 -98.7396
rradius 32.4357
rwrist 17.6123
rhand -6.39786 -55.1296
rfingers 7.12502
rthumb 19.4499 -84.1768
lclavicle 1.95554e-014 -1.14301e-014
lhumerus -40.1696 -5.40204 90.3071
lradius 34.7043
lwrist -17.9733
lhand -2.24224 -38.4904
lfingers 7.12502
lthumb 23.441 -9.89823
rfemur -4.48203 15.3761 28.8559
rtibia 26.5066
rfoot -33.4363 -37.8789
rtoes 27.1128
lfemur -11.148 -23.548 -22.8561
ltibia 31.3015
lfoot -24.3192 9.91974
ltoes -27.5168
2
root 9.0919 15.1349 42.0317 -180.014 -12.8992 -179.22
lowerback 5.05198 2.59985 2.19293
upperback -3.6893 3.61434 0.282106
thorax -6.56168 1.66144 -1.31126
lowerneck -1.7571 16.8327 8.60541
upperneck 9.76707 22.4733 -3.95576
head 4.62587 11.1755 -1.20913
rclavicle 2.86871e-014 5.26779e-015
rhumerus -47.6359 15.5465 -98.7728
rradius 32.3639
rwrist 17.5597
rhand -6.4389 -55.0376
rfingers 7.12502
rthumb 19.4104 -84.0888
lclavicle 2.86871e-014 5.26779e-015
lhumerus -40.3751 -6.63334 91.3721
lradius 37.7062
lwrist -12.2923
lhand 7.37733 -28.1982
lfingers 7.12502
lthumb 32.6348 -1.12168
rfemur -4.38811 15.3676 28.9851
rtibia 26.3632
rfoot -33.174 -37.9452
rtoes 27.1836
lfemur -11.1945 -23.3552 -22.7267
ltibia 31.4036
lfoot -24.3689 9.72187
ltoes -26.8416
3
root 9.09399 15.1373 42.0306 -179.971 -12.8982 -179.168
lowerback 4.99123 2.62155 2.23062
upperback -3.68821 3.64569 0.318707
thorax -6.52459 1.6763 -1.29401
lowerneck -1.80948 16.8386 8.4318
upperneck 9.76569 22.4742 -3.83692
head 4.60085 11.1753 -1.15422
rclavicle 3.88748e-014 1.0138e-014
rhumerus -47.6535 15.5628 -98.7014
rradius 32.4264
rwrist 17.5304
rhand -6.46066 -55.0404
rfingers 7.12502
rthumb 19.3895 -84.0938
lclavicle 3.88748e-014 1.0138e-014
lhumerus -40.1417 -5.3301 90.3658
lradius 34.7262
lwrist -18.064
lhand -2.71228 -38.1575
lfingers 7.12502
lthumb 22.9901 -9.50854
rfemur -4.44621 15.3542 29.0317
rtibia 26.34
rfoot -32.9389 -38.084
rtoes 26.728
lfemur -11.2516 -23.3838 -22.6375
ltibia 31.4013
lfoot -24.397 9.66831
ltoes -25.405
4
root 9.09544 15.1385 42.0305 -179.939 -12.8533 -179.157
lowerback 4.95493 2.63955 2.21825
upperback -3.67358 3.66944 0.356868
thorax -6.49063 1.69013 -1.24746
lowerneck -1.87387 16.827 8.40801
upperneck 9.72188 22.4702 -3.9688
head 4.60977 11.1659 -1.18368
rclavicle 1.43746e-014 -5.66536e-015
rhumerus -47.6011 15.5684 -98.6147
rradius 32.3933
rwrist 17.5869
rhand -6.48105 -54.9524
rfingers 7.12502
rthumb 19.3699 -84.0077
lclavicle 1.43746e-014 -5.66536e-015
lhumerus -40.2669 -6.37669 91.3369
lradius 37.0716
lwrist -13.5331
lhand 3.8815 -30.0898
lfingers 7.12502
lthumb 29.3026 -2.37846
rfemur -4.47087 15.4457 29.0389
rtibia 26.3202
rfoot -33.0641 -38.194
rtoes 26.4992
lfemur -11.2781 -23.3595 -22.6081
ltibia 31.3962
lfoot -24.4114 9.67653
ltoes -25.651
5
root 9.09694 15.1388 42.0301 -179.941 -12.7885 -179.22
lowerback 4.9583 2.65248 2.1154
upperback -3.62949 3.68073 0.374112
thorax -6.45287 1.70254 -1.17243
lowerneck -2.07529 16.8367 8.28071
upperneck 9.78382 22.4707 -3.87536
head 4.63601 11.1627 -1.1236
rclavicle -1.26353e-014 -3.37934e-015
rhumerus -47.499 15.6168 -98.5741
rradius 32.3279
rwrist 17.6043
rhand -6.51122 -54.8619
rfingers 7.12502
rthumb 19.3409 -83.9201
lclavicle -1.26353e-014 -3.37934e-015
lhumerus -40.074 -5.36138 90.5071
lradius 34.8266
lwrist -18.0594
lhand -2.95066 -37.864
lfingers 7.12502
lthumb 22.7613 -9.18674
rfemur -4.43304 15.5604 28.9915
rtibia 26.3316
rfoot -33.5174 -38.1322
rtoes 26.9533
lfemur -11.2403 -23.3516 -22.6833
ltibia 31.365
lfoot -24.3978 9.7524
ltoes -26.2764
